<?xml version="1.0" encoding="utf-8"?>
<!-- Generator: Adobe Illustrator 24.3.0, SVG Export Plug-In . SVG Version: 6.00 Build 0)  -->
<svg version="1.1" id="Layer_1" xmlns="http://www.w3.org/2000/svg" xmlns:xlink="http://www.w3.org/1999/xlink" x="0px" y="0px"
	 viewBox="0 0 220 118" style="enable-background:new 0 0 220 118;" xml:space="preserve">
<style type="text/css">
	.st0{fill-rule:evenodd;clip-rule:evenodd;fill:#036F49;}
	.st1{fill:none;}
	.st2{fill:#003A70;}
	.st3{display:none;}
	.st4{display:inline;fill-rule:evenodd;clip-rule:evenodd;fill:#036F49;}
	.st5{display:inline;fill:#003A70;}
</style>
<g>
	<g>
		<path class="st0" d="M110,0C84.9,0,64.6,20.3,64.6,45.4c0,25.1,20.3,45.4,45.4,45.4c25.1,0,45.4-20.3,45.4-45.4
			C155.4,20.3,135.1,0,110,0z M110,86.3c-22.6,0-40.9-18.3-40.9-40.9c0-22.6,18.3-40.9,40.9-40.9c22.6,0,40.9,18.3,40.9,40.9
			C150.9,68,132.6,86.3,110,86.3z"/>
		<path class="st0" d="M110,6.8c-21.3,0-38.6,17.3-38.6,38.6c0,21.3,17.3,38.6,38.6,38.6c21.3,0,38.6-17.3,38.6-38.6
			C148.6,24.1,131.3,6.8,110,6.8z M135.4,58.8c0,2.1-0.9,3.6-2.6,4.5c-1.7,0.9-4.6,1.3-8.4,1.3c-5.4,0-9.7-1.7-13.1-5.2
			c-0.3-0.3-0.5-0.5-0.6-0.6l-9.1-9.4c-1.2-1.2-2.1-1.9-2.9-2.3c-0.8-0.3-1.8-0.5-3-0.5c-1.3,0-2.2,0.1-2.7,0.3
			c-0.5,0.2-0.7,0.8-0.7,1.6v14c0,0.8-0.3,1.3-0.9,1.7c-0.6,0.3-1.6,0.5-3,0.5c-1.3,0-2.3-0.2-2.9-0.5c-0.6-0.3-0.8-0.9-0.8-1.7V32
			c0-2.1,0.8-3.6,2.5-4.5c1.7-0.9,4.5-1.3,8.4-1.3c5.5,0,9.9,1.8,13.3,5.4c0.2,0.2,0.3,0.3,0.5,0.5l9.1,9.4c0,0,0,0,0,0
			c1.8,1.9,3.8,2.8,5.8,2.8c1.2,0,2.1-0.1,2.6-0.4c0.5-0.2,0.8-0.8,0.8-1.6v-14c0-0.8,0.3-1.3,0.9-1.6c0.6-0.3,1.6-0.5,3-0.5
			c1.4,0,2.4,0.2,3,0.5c0.6,0.3,0.9,0.8,0.9,1.6V58.8z"/>
	</g>
	<g>
		<path class="st1" d="M40.4,112l-2.3-2.3c-0.3-0.3-0.6-0.6-0.9-0.7c-0.3-0.1-0.7-0.2-1.1-0.2c-0.5,0-0.8,0.1-1.2,0.2
			c-0.3,0.1-0.6,0.4-0.9,0.7l-2.2,2.3c0,0-0.1,0.1-0.2,0.2c-0.2,0.2-0.3,0.3-0.3,0.4c0,0.2,0.2,0.4,0.5,0.5c0.3,0.1,0.8,0.2,1.4,0.2
			h3H39c0.6,0,1.1-0.1,1.5-0.2c0.3-0.1,0.5-0.3,0.5-0.5c0-0.1-0.1-0.2-0.3-0.4C40.5,112.2,40.4,112.1,40.4,112z"/>
		<path class="st1" d="M163.4,111.5c1.3,0,2.5-0.2,3.3-0.5c1-0.3,1.4-0.8,1.4-1.3c0-0.5-0.4-0.9-1.3-1.2c-0.9-0.3-2-0.5-3.4-0.5
			h-0.1c-1.5,0-2.6,0.2-3.4,0.5c-0.9,0.3-1.3,0.8-1.3,1.3v1.7h4.4C163.1,111.5,163.2,111.5,163.4,111.5z"/>
		<path class="st1" d="M121.5,103.6c-0.7-0.3-2-0.5-3.7-0.5h0c-1.7,0-3,0.2-3.7,0.5c-0.7,0.3-1.1,0.9-1.1,1.8v3.7h4.2
			c0.2,0,0.5,0,0.7,0c1.7,0,2.9-0.2,3.6-0.5c0.8-0.3,1.2-0.9,1.2-1.6v-1.8C122.7,104.5,122.3,103.9,121.5,103.6z"/>
		<path class="st1" d="M191,108.5c-0.7-0.3-2-0.5-3.7-0.5h0c-1.7,0-2.9,0.2-3.7,0.6c-0.7,0.4-1.1,1-1.1,1.9v3.6
			c0,0.8,0.4,1.4,1.1,1.7c0.8,0.3,2,0.5,3.7,0.5h0c1.7,0,2.9-0.2,3.7-0.5c0.7-0.3,1.1-0.9,1.1-1.8v-3.6
			C192.1,109.4,191.7,108.8,191,108.5z"/>
		<path class="st2" d="M76.5,101.8c0,0-0.1,0-0.2,0c-0.4-0.1-1-0.2-1.9-0.2H49.3c-0.3,0-0.6,0-0.9,0c-0.5,0-0.8,0.1-1,0.2
			c-0.4,0.1-0.6,0.3-0.6,0.6c0,0.2,0.2,0.4,0.6,0.5c0.2,0.1,0.6,0.1,1,0.1c0.3,0,0.5,0,0.9,0h4.9c1.1,0,1.9,0.1,2.2,0.2
			c0.3,0.1,0.5,0.4,0.5,0.8v11.5c0,0.9,0.4,1.5,1.2,1.9c0.8,0.4,2.1,0.6,4,0.6c1.8,0,3-0.2,3.7-0.5c0.7-0.4,1.1-1,1.1-1.9
			c0,0,0,0,0-0.1c0,0,0,0,0,0L66.9,104c0-0.4,0.2-0.7,0.5-0.8c0.3-0.1,1.1-0.2,2.2-0.2h4.8c0.9,0,1.5,0,1.9-0.1c0,0,0,0,0,0
			c0-0.1,0.1-0.1,0.1-0.2c0.1-0.1,0.2-0.3,0.4-0.4C76.8,102.1,76.7,102,76.5,101.8z"/>
		<path class="st2" d="M180.7,105.2c0.4,0.1,0.9,0.2,1.4,0.2c0.5,0,1.1-0.1,1.8-0.4c0.1,0,0.2-0.1,0.3-0.1l3-1.1l2.1-0.8
			c0.3-0.1,0.6-0.2,0.8-0.4c0.2-0.2,0.3-0.3,0.3-0.4c0-0.2-0.3-0.4-0.8-0.6c-0.5-0.2-1.1-0.3-1.8-0.3c-0.2,0-0.4,0-0.6,0
			c-0.5,0.1-1,0.2-1.5,0.4l0,0l-4.9,2.2c-0.2,0.1-0.4,0.2-0.5,0.3c-0.1,0.1-0.2,0.2-0.2,0.3C180.1,104.9,180.4,105,180.7,105.2z"/>
		<path class="st2" d="M192.6,107.3c-1.3-0.5-3.1-0.8-5.3-0.9c-1-0.1-2.2-0.1-3.4-0.1c-1.9,0-3.6,0.1-5.3,0.3
			c-1.6,0.2-2.9,0.5-3.9,0.8c-0.9,0.3-1.5,0.6-1.8,1c-0.4,0.4-0.5,0.9-0.5,1.7v4.2c0,0.7,0.2,1.3,0.5,1.7c0.4,0.4,1,0.7,1.8,1
			c1,0.3,2.3,0.6,3.9,0.8c1.6,0.2,3.4,0.3,5.3,0.3c1.2,0,2.4,0,3.4-0.1c2.2-0.1,4-0.4,5.3-0.9c1.9-0.7,2.9-1.7,2.9-3v-3.7
			C195.4,108.9,194.5,107.9,192.6,107.3z M192.1,113.9c0,0.8-0.4,1.4-1.1,1.8c-0.7,0.4-2,0.5-3.7,0.5h0c-1.7,0-2.9-0.2-3.7-0.5
			c-0.7-0.3-1.1-0.9-1.1-1.7v-3.6c0-0.9,0.4-1.5,1.1-1.9c0.8-0.4,2-0.6,3.7-0.6h0c1.7,0,2.9,0.2,3.7,0.5c0.7,0.3,1.1,0.9,1.1,1.8
			V113.9z"/>
		<path class="st2" d="M100.4,101.7c-0.2-0.1-0.7-0.2-1.3-0.2c-0.6,0-1.1,0.1-1.3,0.2c-0.2,0.1-0.4,0.4-0.4,0.7V114
			c0,0.8-0.4,1.4-1.1,1.8c-0.7,0.4-2,0.5-3.7,0.5c-1.7,0-2.9-0.2-3.6-0.5c-0.7-0.3-1.1-0.9-1.1-1.7v-10c0-0.9-0.4-1.5-1.2-1.9
			c-0.8-0.4-2.1-0.6-3.9-0.6c-1.8,0-3.1,0.2-3.9,0.6c-0.1,0.1-0.2,0.1-0.3,0.2c0,0,0,0,0,0c0,0.2-0.1,0.4-0.4,0.5c0,0-0.1,0-0.1,0
			c-0.2,0.3-0.3,0.7-0.3,1.2v10.5c0,0.5,0.1,0.9,0.4,1.2c0.4,0.6,1.2,1.1,2.4,1.4c1.9,0.6,4.7,0.9,8.6,0.9c4,0,6.9-0.3,8.9-1
			c2-0.7,2.9-1.7,2.9-3v-11.6C100.8,102.1,100.7,101.9,100.4,101.7z"/>
		<path class="st2" d="M153.3,113.2c1-0.3,2.3-0.5,4-0.5h6.1h0.2c2.4,0,4.3-0.3,5.9-0.8c1.5-0.6,2.3-1.3,2.3-2.2
			c0-1.1-1-1.9-3.1-2.5c-1.4-0.4-3.1-0.7-5.3-0.8c-1-0.1-2.1-0.1-3.3-0.1c-3.9,0-6.7,0.3-8.7,1c-1.1,0.4-1.9,0.9-2.4,1.4
			c-0.4,0.5-0.6,1-0.6,1.6v3.7c0,0.6,0.2,1.1,0.6,1.5c0.5,0.6,1.2,1.1,2.3,1.5c1.9,0.7,4.8,1,8.6,1c1.2,0,2.3,0,3.4-0.1
			c1.8-0.1,3.3-0.4,4.7-0.7c2.2-0.5,3.3-1.2,3.3-1.9c0-0.5-0.4-0.9-1.3-1.3c-0.9-0.4-1.9-0.5-3.1-0.5c-1.3,0-2.3,0.1-3.1,0.3
			c-0.2,0.1-0.4,0.1-0.6,0.2c-0.5,0.2-1,0.5-1.5,1c-0.7,0.6-1.4,1-2.2,1.3c-0.8,0.2-1.7,0.3-3,0.3c-1.4,0-2.6-0.2-3.6-0.6
			c-1-0.4-1.4-0.9-1.4-1.4C151.7,114,152.3,113.5,153.3,113.2z M158.6,109.8c0-0.6,0.4-1,1.3-1.3c0.8-0.3,2-0.5,3.4-0.5h0.1
			c1.4,0,2.5,0.2,3.4,0.5c0.8,0.3,1.3,0.7,1.3,1.2c0,0.5-0.5,1-1.4,1.3c-0.9,0.3-2,0.5-3.3,0.5c-0.1,0-0.3,0-0.4,0h-4.4V109.8z"/>
		<path class="st2" d="M125.6,110.8c-0.6-0.4-1.5-0.8-2.7-1c1.1-0.3,2-0.7,2.4-1.1c0.5-0.4,0.7-1,0.7-1.7v-1.5c0-1.3-1-2.3-2.9-3
			c-1.3-0.5-3.1-0.7-5.3-0.9c-1-0.1-2.2-0.1-3.4-0.1c-3.9,0-6.8,0.3-8.7,1c-1.9,0.7-2.9,1.7-2.9,3v10c0,0.9,0.4,1.6,1.2,1.9
			c0.8,0.4,2.1,0.6,3.9,0.6c1.8,0,3.2-0.2,4-0.6c0.8-0.4,1.2-1,1.2-1.9v-5.1h4.4c0.2,0,0.3,0,0.5,0c1.8,0,3.1,0.2,3.9,0.5
			c0.9,0.3,1.3,0.9,1.3,1.6v4.5c0,0.3,0.1,0.6,0.4,0.7c0.2,0.1,0.7,0.2,1.3,0.2c0.6,0,1.1-0.1,1.3-0.2c0.3-0.2,0.4-0.4,0.4-0.7v-4.5
			C126.4,111.8,126.1,111.3,125.6,110.8z M122.7,107.1c0,0.8-0.4,1.3-1.2,1.6c-0.7,0.3-2,0.4-3.6,0.5c-0.2,0-0.5,0-0.7,0h-4.2v-3.7
			c0-0.8,0.4-1.4,1.1-1.8c0.7-0.4,2-0.5,3.7-0.5h0c1.7,0,3,0.2,3.7,0.5c0.8,0.3,1.2,0.9,1.2,1.7V107.1z"/>
		<path class="st2" d="M149,116.7c-0.4-0.1-1-0.2-1.9-0.2H144c-2,0-3.4-0.1-4.3-0.5c-0.8-0.3-1.3-0.9-1.3-1.6V104
			c0-0.9-0.4-1.6-1.2-1.9c-0.8-0.4-2.2-0.6-4-0.6c-1.9,0-3.2,0.2-4,0.6c-0.8,0.4-1.2,1-1.2,1.9v11.7c0,0.7,0.5,1.2,1.5,1.6
			c1,0.3,2.3,0.6,4,0.6h13.7c0.9,0,1.5-0.1,1.9-0.2c0.4-0.1,0.5-0.3,0.5-0.5C149.5,116.9,149.4,116.8,149,116.7z"/>
		<path class="st2" d="M54,114.9l-0.7-0.7l-11.4-11.7c-0.3-0.3-0.6-0.6-1-0.7c-0.3-0.1-0.7-0.2-1.2-0.2c-0.5,0-0.9,0.1-1.2,0.2
			c-0.3,0.1-0.7,0.4-1,0.7l-1.5,1.5l-12.6,12.9c-0.1,0.1-0.2,0.2-0.3,0.3c0,0,0,0,0,0c-0.1,0.1-0.1,0.1-0.1,0.2c0,0.1,0,0.1,0.1,0.2
			c0.1,0.1,0.2,0.2,0.4,0.2c0.3,0.1,0.8,0.2,1.3,0.2c0.4,0,0.7-0.1,0.9-0.2c0.3-0.1,0.5-0.3,0.8-0.5l1.4-1.4c0.5-0.5,1-0.9,1.4-1
			c0.4-0.1,0.9-0.2,1.7-0.2h4.9h5.1c0.7,0,1.3,0.1,1.7,0.2c0.4,0.2,0.9,0.5,1.4,1l0.3,0.3c0.7,0.7,1.4,1.2,2.1,1.5
			c0.7,0.3,1.7,0.4,2.8,0.4c1.5,0,2.8-0.2,3.8-0.4l0.1,0c1-0.3,1.5-0.7,1.5-1.3c0-0.2-0.1-0.4-0.2-0.5
			C54.5,115.5,54.3,115.2,54,114.9z M40.4,113.1c-0.4,0.1-0.8,0.2-1.5,0.2h-2.9h-3c-0.6,0-1.1-0.1-1.4-0.2c-0.3-0.1-0.5-0.3-0.5-0.5
			c0-0.1,0.1-0.2,0.3-0.4c0.1-0.1,0.2-0.2,0.2-0.2l2.2-2.3c0.3-0.3,0.6-0.5,0.9-0.7c0.3-0.1,0.7-0.2,1.2-0.2c0.4,0,0.8,0.1,1.1,0.2
			c0.3,0.1,0.6,0.3,0.9,0.7l2.3,2.3c0,0,0.1,0.1,0.2,0.2c0.2,0.2,0.3,0.3,0.3,0.4C41,112.8,40.8,113,40.4,113.1z"/>
		<path class="st2" d="M22.1,101.7c-0.3-0.1-0.7-0.2-1.3-0.2c-0.6,0-1,0.1-1.3,0.2c-0.2,0.1-0.4,0.4-0.4,0.7v6
			c0,0.4-0.1,0.6-0.3,0.7c-0.2,0.1-0.6,0.2-1.2,0.2c-0.9,0-1.8-0.4-2.6-1.2l-4-4c-0.1,0-0.1-0.1-0.2-0.2c-1.5-1.5-3.5-2.3-5.9-2.3
			c-1.7,0-3,0.2-3.7,0.6c-0.7,0.4-1.1,1-1.1,1.9v13c0,0.3,0.1,0.6,0.4,0.7c0.3,0.1,0.7,0.2,1.3,0.2c0.6,0,1-0.1,1.3-0.2
			c0.3-0.2,0.4-0.4,0.4-0.7v-6c0-0.3,0.1-0.6,0.3-0.7c0.2-0.1,0.6-0.2,1.2-0.2c0.5,0,1,0.1,1.3,0.2c0.3,0.1,0.8,0.5,1.3,1l4,4.1
			c0.1,0,0.1,0.1,0.3,0.3c1.5,1.5,3.4,2.2,5.8,2.2c1.7,0,3-0.2,3.7-0.6c0.6-0.3,0.9-0.7,1.1-1.3c0-0.2,0.1-0.4,0.1-0.6v-13.1
			c0-0.1,0-0.3-0.1-0.4C22.3,101.9,22.2,101.8,22.1,101.7z"/>
		<path class="st2" d="M219.2,108.5c-0.5-0.5-1.3-0.9-2.5-1.2c-1-0.3-2.2-0.6-3.6-0.8c-1.4-0.2-3-0.2-4.7-0.2
			c-2.1,0-3.9,0.1-5.5,0.3c-1.6,0.2-2.9,0.5-4,1c-0.8,0.4-1.4,0.7-1.8,1.1c-0.4,0.4-0.6,1-0.6,1.7v0.4v4.7c0,0.9,0.4,1.6,1.2,1.9
			c0.8,0.4,2.1,0.6,3.9,0.6c1.8,0,3.1-0.2,3.9-0.6c0.8-0.4,1.2-1,1.2-1.9v-1.8c0-0.6-0.1-1-0.4-1.3c-0.2-0.3-0.7-0.5-1.4-0.7
			c-0.3-0.1-0.9-0.2-1.6-0.4c-2-0.4-3-1-3-1.6c0-0.6,0.4-1,1.3-1.3c0.9-0.3,2-0.5,3.4-0.5c1.7,0,3,0.2,3.7,0.6
			c0.7,0.4,1.1,1.1,1.1,2.2v4.8c0,0.9,0.4,1.6,1.2,1.9c0.8,0.4,2.1,0.6,3.9,0.6c1.8,0,3.1-0.2,3.9-0.6c0.8-0.4,1.2-1,1.2-1.9v-4.7
			C220,109.7,219.7,109,219.2,108.5z"/>
	</g>
</g>
<g class="st3">
	<path class="st4" d="M110,0C87.6,0,69.4,18.2,69.4,40.6c0,22.4,18.2,40.6,40.6,40.6c22.4,0,40.6-18.2,40.6-40.6
		C150.6,18.2,132.4,0,110,0z M110,77.1c-20.2,0-36.5-16.4-36.5-36.5c0-20.2,16.4-36.5,36.5-36.5c20.2,0,36.5,16.4,36.5,36.5
		C146.5,60.8,130.2,77.1,110,77.1z"/>
	<path class="st4" d="M110,6.1c-19.1,0-34.5,15.4-34.5,34.5c0,19.1,15.4,34.5,34.5,34.5c19.1,0,34.5-15.4,34.5-34.5
		C144.5,21.5,129.1,6.1,110,6.1z M132.7,52.5c0,1.9-0.8,3.2-2.3,4c-1.5,0.8-4.1,1.2-7.5,1.2c-4.8,0-8.7-1.6-11.7-4.7
		c-0.2-0.3-0.4-0.4-0.5-0.6l-8.1-8.4c-1-1-1.9-1.7-2.6-2c-0.7-0.3-1.6-0.4-2.7-0.4c-1.2,0-2,0.1-2.4,0.3c-0.4,0.2-0.7,0.7-0.7,1.4
		v12.5c0,0.7-0.3,1.2-0.8,1.5c-0.5,0.3-1.4,0.4-2.7,0.4c-1.2,0-2.1-0.1-2.5-0.4c-0.5-0.3-0.8-0.8-0.8-1.5V28.6c0-1.9,0.8-3.2,2.3-4
		c1.5-0.8,4-1.2,7.5-1.2c4.9,0,8.8,1.6,11.9,4.8c0.1,0.2,0.3,0.3,0.4,0.4l8.1,8.4c0,0,0,0,0,0c1.6,1.7,3.4,2.5,5.2,2.5
		c1.1,0,1.9-0.1,2.4-0.3c0.5-0.2,0.7-0.7,0.7-1.5V25.3c0-0.7,0.3-1.2,0.8-1.5c0.5-0.3,1.4-0.4,2.6-0.4c1.3,0,2.1,0.1,2.7,0.4
		c0.6,0.3,0.8,0.8,0.8,1.5V52.5z"/>
</g>
<g class="st3">
	<path class="st5" d="M17.9,91c0.2-0.4,0.6-0.7,1.1-0.9c0.5-0.2,1.1-0.2,1.8-0.2c0.7,0,1.3,0.1,1.7,0.2c0.4,0.1,0.8,0.3,1,0.5
		c0.2,0.2,0.4,0.4,0.5,0.8c0.2,0.4,0.2,1,0.2,1.9v21c0,0.6,0,1-0.1,1.3c0,0.3-0.2,0.6-0.4,1c-0.4,0.7-1.3,1-2.9,1
		c-1,0-1.7-0.1-2-0.2c-0.4-0.2-0.7-0.4-0.9-0.7c-5.7-7.6-9.4-12.5-11.2-14.8v12.4c0,0.6,0,1-0.1,1.3s-0.2,0.6-0.4,1
		c-0.4,0.7-1.3,1-2.9,1c-1.6,0-2.5-0.3-2.9-1c-0.2-0.4-0.3-0.7-0.4-1c0-0.3-0.1-0.7-0.1-1.3V93.1c0-1,0.1-1.7,0.4-2.1
		c0.2-0.4,0.6-0.7,1.1-0.9c0.5-0.2,1.1-0.2,1.9-0.2c0.8,0,1.4,0.1,1.8,0.2c0.4,0.1,0.7,0.3,0.9,0.5c0.1,0.1,0.4,0.4,0.9,1
		c5.3,7.2,8.9,12,10.7,14.3V93.1C17.5,92.1,17.7,91.4,17.9,91z"/>
	<path class="st5" d="M42.2,91.8l10.2,21.1c0.4,0.9,0.6,1.5,0.6,1.9c0,0.9-0.7,1.7-2.2,2.5c-0.9,0.4-1.5,0.6-2,0.6
		c-0.5,0-0.9-0.1-1.2-0.3c-0.3-0.2-0.5-0.5-0.7-0.7c-0.1-0.3-0.3-0.6-0.6-1.1l-2-4.1H34l-2,4.1c-0.3,0.5-0.4,0.9-0.6,1.1
		c-0.1,0.2-0.4,0.5-0.7,0.7c-0.3,0.2-0.7,0.4-1.2,0.4c-0.5,0-1.2-0.2-2-0.6c-1.5-0.7-2.2-1.5-2.2-2.4c0-0.4,0.2-1.1,0.6-1.9
		l10.2-21.1c0.3-0.6,0.7-1,1.3-1.4c0.6-0.4,1.2-0.5,1.8-0.5C40.6,89.8,41.6,90.5,42.2,91.8z M39.2,100.9l-2.5,5.2h5L39.2,100.9z"/>
	<path class="st5" d="M48.9,89.8h21c0.8,0,1.4,0.1,1.8,0.3c0.4,0.2,0.6,0.5,0.8,0.9c0.1,0.4,0.2,0.9,0.2,1.6c0,0.7-0.1,1.2-0.2,1.6
		c-0.1,0.4-0.3,0.7-0.6,0.8c-0.5,0.2-1.1,0.3-1.9,0.3h-7.2v19c0,0.6,0,1-0.1,1.3c0,0.3-0.2,0.6-0.3,1c-0.2,0.4-0.5,0.6-1,0.8
		c-0.5,0.2-1.1,0.2-1.9,0.2c-0.8,0-1.4-0.1-1.9-0.2c-0.5-0.2-0.8-0.4-1-0.8c-0.2-0.4-0.3-0.7-0.3-1c0-0.3-0.1-0.7-0.1-1.3v-19h-7.3
		c-0.8,0-1.4-0.1-1.8-0.3c-0.4-0.2-0.6-0.5-0.8-0.9c-0.1-0.4-0.2-0.9-0.2-1.6c0-0.7,0.1-1.2,0.2-1.6c0.1-0.4,0.3-0.7,0.6-0.8
		C47.5,89.9,48.1,89.8,48.9,89.8z"/>
	<path class="st5" d="M91.9,90.8c0.3-0.4,0.6-0.7,1.1-0.8c0.5-0.2,1.1-0.2,1.8-0.2c0.7,0,1.3,0.1,1.7,0.2c0.4,0.1,0.8,0.3,1,0.5
		c0.2,0.2,0.4,0.4,0.5,0.8c0.2,0.4,0.2,1.1,0.2,2v11.4c0,3.3-1,6.4-3.1,9.1c-1,1.3-2.3,2.3-3.9,3.1c-1.6,0.8-3.3,1.2-5.3,1.2
		s-3.7-0.4-5.3-1.2c-1.6-0.8-2.9-1.9-3.8-3.2c-2-2.7-3.1-5.7-3.1-9.1V93.2c0-0.6,0-1.1,0.1-1.3c0-0.3,0.2-0.6,0.4-1
		c0.2-0.4,0.5-0.6,1-0.8c0.5-0.2,1.1-0.2,1.9-0.2c0.8,0,1.4,0.1,1.9,0.2c0.5,0.2,0.8,0.4,1,0.8c0.3,0.6,0.5,1.4,0.5,2.4v11.3
		c0,1.5,0.4,3,1.1,4.4c0.4,0.7,0.9,1.3,1.7,1.7c0.8,0.4,1.7,0.6,2.7,0.6c1.8,0,3.2-0.7,4.1-2s1.4-2.9,1.4-4.7V92.9
		C91.5,91.9,91.6,91.3,91.9,90.8z"/>
	<path class="st5" d="M121.5,112.9c0.4,0.9,0.6,1.6,0.6,2c0,1-0.8,1.8-2.3,2.4c-0.8,0.4-1.5,0.5-1.9,0.5c-0.5,0-0.9-0.1-1.2-0.4
		c-0.3-0.2-0.5-0.5-0.7-0.7c-0.3-0.5-1.2-2.8-2.9-6.8l-1.2,0.1h-4.8v4.3c0,0.6,0,1-0.1,1.3c0,0.3-0.2,0.6-0.4,1
		c-0.4,0.7-1.3,1-2.9,1c-1.8,0-2.8-0.5-3.1-1.4c-0.2-0.4-0.2-1.1-0.2-2v-21c0-0.6,0-1,0.1-1.3c0-0.3,0.2-0.6,0.4-1
		c0.4-0.7,1.3-1,2.9-1h8.2c2.2,0,4.4,0.8,6.5,2.4c1,0.8,1.8,1.8,2.5,3.2c0.7,1.3,1,2.8,1,4.5c0,2.8-0.9,5.2-2.8,7
		C119.4,108.3,120.3,110.2,121.5,112.9z M106.9,103.2h4.8c0.7,0,1.5-0.3,2.2-0.8c0.7-0.6,1.1-1.4,1.1-2.5c0-1.1-0.4-1.9-1.1-2.5
		c-0.7-0.6-1.5-0.9-2.3-0.9h-4.8V103.2z"/>
	<path class="st5" d="M129.8,111.9h10.3c0.8,0,1.4,0.1,1.8,0.3c0.4,0.2,0.6,0.5,0.8,0.9c0.1,0.4,0.2,0.9,0.2,1.6
		c0,0.7-0.1,1.2-0.2,1.6c-0.1,0.4-0.3,0.7-0.6,0.8c-0.5,0.3-1.1,0.4-2,0.4h-13.6c-1.8,0-2.8-0.5-3.1-1.4c-0.2-0.4-0.2-1-0.2-1.9v-21
		c0-0.6,0-1,0.1-1.3c0-0.3,0.2-0.6,0.4-1c0.4-0.7,1.3-1,2.9-1c1.8,0,2.8,0.5,3.1,1.4c0.1,0.4,0.2,1.1,0.2,2V111.9z"/>
	<path class="st5" d="M151,110.9h11.6c0.6,0,1,0,1.3,0.1c0.3,0,0.6,0.2,1,0.4c0.7,0.4,1,1.3,1,2.9c0,1.8-0.5,2.8-1.4,3.1
		c-0.4,0.2-1.1,0.2-2,0.2h-15c-1.8,0-2.8-0.5-3.1-1.4c-0.2-0.4-0.2-1-0.2-1.9v-21c0-1.3,0.2-2.2,0.7-2.6c0.5-0.5,1.4-0.7,2.7-0.7
		h14.9c0.6,0,1,0,1.3,0.1c0.3,0,0.6,0.2,1,0.4c0.7,0.4,1,1.3,1,2.9c0,1.8-0.5,2.8-1.4,3.1c-0.4,0.2-1.1,0.2-2,0.2H151v3.8h7.5
		c0.6,0,1,0,1.3,0.1c0.3,0,0.6,0.2,1,0.4c0.7,0.4,1,1.3,1,2.9c0,1.8-0.5,2.8-1.4,3.1c-0.4,0.2-1.1,0.2-2,0.2H151V110.9z"/>
	<path class="st5" d="M180.5,89.5c3.7,0,7,1.3,9.7,4c2.7,2.7,4.1,6,4.1,10c0,4-1.3,7.4-3.9,10.2c-2.6,2.8-5.8,4.2-9.7,4.2
		s-7.1-1.4-9.8-4.2c-2.7-2.8-4-6.1-4-9.9c0-2.1,0.4-4.1,1.1-5.9c0.8-1.8,1.8-3.4,3-4.6c1.3-1.2,2.7-2.2,4.3-2.9
		C177.1,89.8,178.7,89.5,180.5,89.5z M173.6,103.7c0,2.2,0.7,4.1,2.2,5.5c1.4,1.4,3.1,2.1,4.9,2.1c1.8,0,3.4-0.7,4.8-2
		c1.4-1.4,2.2-3.2,2.2-5.5c0-2.3-0.7-4.1-2.2-5.5c-1.4-1.4-3.1-2.1-4.9-2.1s-3.4,0.7-4.8,2.1C174.3,99.7,173.6,101.5,173.6,103.7z"
		/>
	<path class="st5" d="M213.7,91c0.2-0.4,0.6-0.7,1.1-0.9c0.5-0.2,1.1-0.2,1.8-0.2c0.7,0,1.3,0.1,1.7,0.2c0.4,0.1,0.8,0.3,1,0.5
		c0.2,0.2,0.4,0.4,0.5,0.8c0.2,0.4,0.2,1,0.2,1.9v21c0,0.6,0,1-0.1,1.3c0,0.3-0.2,0.6-0.4,1c-0.4,0.7-1.3,1-2.9,1
		c-1,0-1.7-0.1-2-0.2c-0.4-0.2-0.7-0.4-0.9-0.7c-5.7-7.6-9.4-12.5-11.2-14.8v12.4c0,0.6,0,1-0.1,1.3s-0.2,0.6-0.4,1
		c-0.4,0.7-1.3,1-2.9,1c-1.6,0-2.5-0.3-2.9-1c-0.2-0.4-0.3-0.7-0.4-1c0-0.3-0.1-0.7-0.1-1.3V93.1c0-1,0.1-1.7,0.4-2.1
		c0.2-0.4,0.6-0.7,1.1-0.9c0.5-0.2,1.1-0.2,1.9-0.2c0.8,0,1.4,0.1,1.8,0.2c0.4,0.1,0.7,0.3,0.9,0.5c0.1,0.1,0.4,0.4,0.9,1
		c5.3,7.2,8.9,12,10.7,14.3V93.1C213.3,92.1,213.5,91.4,213.7,91z"/>
</g>
</svg>
