<?xml version="1.0" encoding="utf-8"?>
<!-- Generator: Adobe Illustrator 27.6.1, SVG Export Plug-In . SVG Version: 6.00 Build 0)  -->
<svg version="1.1" id="Layer_1" xmlns="http://www.w3.org/2000/svg" xmlns:xlink="http://www.w3.org/1999/xlink" x="0px" y="0px"
	 viewBox="0 0 91 91" style="enable-background:new 0 0 91 91;" xml:space="preserve">
<style type="text/css">
	.st0{fill-rule:evenodd;clip-rule:evenodd;fill:#036F49;}
	.st1{display:none;}
	.st2{display:inline;fill-rule:evenodd;clip-rule:evenodd;fill:#036F49;}
	.st3{display:inline;fill:#003A70;}
</style>
<g>
	<path class="st0" d="M45.5,0.1C20.4,0.1,0.1,20.4,0.1,45.5s20.3,45.4,45.4,45.4s45.4-20.3,45.4-45.4S70.6,0.1,45.5,0.1z M45.5,86.4
		c-22.6,0-40.9-18.3-40.9-40.9S22.9,4.6,45.5,4.6s40.9,18.3,40.9,40.9S68.1,86.4,45.5,86.4z"/>
	<path class="st0" d="M45.5,6.9C24.2,6.9,6.9,24.2,6.9,45.5s17.3,38.6,38.6,38.6s38.6-17.3,38.6-38.6S66.8,6.9,45.5,6.9z M70.9,58.9
		c0,2.1-0.9,3.6-2.6,4.5c-1.7,0.9-4.6,1.3-8.4,1.3c-5.4,0-9.7-1.7-13.1-5.2c-0.3-0.3-0.5-0.5-0.6-0.6l-9.1-9.4
		c-1.2-1.2-2.1-1.9-2.9-2.3c-0.8-0.3-1.8-0.5-3-0.5c-1.3,0-2.2,0.1-2.7,0.3s-0.7,0.8-0.7,1.6v14c0,0.8-0.3,1.3-0.9,1.7
		c-0.6,0.3-1.6,0.5-3,0.5c-1.3,0-2.3-0.2-2.9-0.5c-0.6-0.3-0.8-0.9-0.8-1.7V32.1c0-2.1,0.8-3.6,2.5-4.5s4.5-1.3,8.4-1.3
		c5.5,0,9.9,1.8,13.3,5.4c0.2,0.2,0.3,0.3,0.5,0.5l9.1,9.4l0,0c1.8,1.9,3.8,2.8,5.8,2.8c1.2,0,2.1-0.1,2.6-0.4
		c0.5-0.2,0.8-0.8,0.8-1.6v-14c0-0.8,0.3-1.3,0.9-1.6c0.6-0.3,1.6-0.5,3-0.5s2.4,0.2,3,0.5s0.9,0.8,0.9,1.6L70.9,58.9L70.9,58.9z"/>
</g>
<g class="st1">
	<path class="st2" d="M45.5-13.5C23.1-13.5,4.9,4.7,4.9,27.1s18.2,40.6,40.6,40.6s40.6-18.2,40.6-40.6S67.9-13.5,45.5-13.5z
		 M45.5,63.6C25.3,63.6,9,47.2,9,27.1C9,6.9,25.4-9.4,45.5-9.4C65.7-9.4,82,7,82,27.1C82,47.3,65.7,63.6,45.5,63.6z"/>
	<path class="st2" d="M45.5-7.4C26.4-7.4,11,8,11,27.1s15.4,34.5,34.5,34.5S80,46.2,80,27.1S64.6-7.4,45.5-7.4z M68.2,39
		c0,1.9-0.8,3.2-2.3,4s-4.1,1.2-7.5,1.2c-4.8,0-8.7-1.6-11.7-4.7c-0.2-0.3-0.4-0.4-0.5-0.6l-8.1-8.4c-1-1-1.9-1.7-2.6-2
		s-1.6-0.4-2.7-0.4c-1.2,0-2,0.1-2.4,0.3s-0.7,0.7-0.7,1.4v12.5c0,0.7-0.3,1.2-0.8,1.5s-1.4,0.4-2.7,0.4c-1.2,0-2.1-0.1-2.5-0.4
		c-0.5-0.3-0.8-0.8-0.8-1.5V15.1c0-1.9,0.8-3.2,2.3-4s4-1.2,7.5-1.2c4.9,0,8.8,1.6,11.9,4.8c0.1,0.2,0.3,0.3,0.4,0.4l8.1,8.4l0,0
		c1.6,1.7,3.4,2.5,5.2,2.5c1.1,0,1.9-0.1,2.4-0.3s0.7-0.7,0.7-1.5V11.8c0-0.7,0.3-1.2,0.8-1.5s1.4-0.4,2.6-0.4
		c1.3,0,2.1,0.1,2.7,0.4c0.6,0.3,0.8,0.8,0.8,1.5V39H68.2z"/>
</g>
<g class="st1">
	<path class="st3" d="M-46.6,77.5c0.2-0.4,0.6-0.7,1.1-0.9c0.5-0.2,1.1-0.2,1.8-0.2s1.3,0.1,1.7,0.2s0.8,0.3,1,0.5s0.4,0.4,0.5,0.8
		c0.2,0.4,0.2,1,0.2,1.9v21c0,0.6,0,1-0.1,1.3c0,0.3-0.2,0.6-0.4,1c-0.4,0.7-1.3,1-2.9,1c-1,0-1.7-0.1-2-0.2
		c-0.4-0.2-0.7-0.4-0.9-0.7c-5.7-7.6-9.4-12.5-11.2-14.8v12.4c0,0.6,0,1-0.1,1.3c-0.1,0.3-0.2,0.6-0.4,1c-0.4,0.7-1.3,1-2.9,1
		c-1.6,0-2.5-0.3-2.9-1c-0.2-0.4-0.3-0.7-0.4-1c0-0.3-0.1-0.7-0.1-1.3V79.6c0-1,0.1-1.7,0.4-2.1c0.2-0.4,0.6-0.7,1.1-0.9
		c0.5-0.2,1.1-0.2,1.9-0.2c0.8,0,1.4,0.1,1.8,0.2c0.4,0.1,0.7,0.3,0.9,0.5c0.1,0.1,0.4,0.4,0.9,1c5.3,7.2,8.9,12,10.7,14.3V79.6
		C-47,78.6-46.8,77.9-46.6,77.5z"/>
	<path class="st3" d="M-22.3,78.3l10.2,21.1c0.4,0.9,0.6,1.5,0.6,1.9c0,0.9-0.7,1.7-2.2,2.5c-0.9,0.4-1.5,0.6-2,0.6
		s-0.9-0.1-1.2-0.3c-0.3-0.2-0.5-0.5-0.7-0.7c-0.1-0.3-0.3-0.6-0.6-1.1l-2-4.1h-10.3l-2,4.1c-0.3,0.5-0.4,0.9-0.6,1.1
		c-0.1,0.2-0.4,0.5-0.7,0.7c-0.3,0.2-0.7,0.4-1.2,0.4s-1.2-0.2-2-0.6c-1.5-0.7-2.2-1.5-2.2-2.4c0-0.4,0.2-1.1,0.6-1.9l10.2-21.1
		c0.3-0.6,0.7-1,1.3-1.4s1.2-0.5,1.8-0.5C-23.9,76.3-22.9,77-22.3,78.3z M-25.3,87.4l-2.5,5.2h5L-25.3,87.4z"/>
	<path class="st3" d="M-15.6,76.3h21c0.8,0,1.4,0.1,1.8,0.3c0.4,0.2,0.6,0.5,0.8,0.9c0.1,0.4,0.2,0.9,0.2,1.6S8.1,80.3,8,80.7
		s-0.3,0.7-0.6,0.8c-0.5,0.2-1.1,0.3-1.9,0.3h-7.2v19c0,0.6,0,1-0.1,1.3c0,0.3-0.2,0.6-0.3,1c-0.2,0.4-0.5,0.6-1,0.8
		c-0.5,0.2-1.1,0.2-1.9,0.2c-0.8,0-1.4-0.1-1.9-0.2c-0.5-0.2-0.8-0.4-1-0.8s-0.3-0.7-0.3-1s-0.1-0.7-0.1-1.3v-19h-7.3
		c-0.8,0-1.4-0.1-1.8-0.3c-0.4-0.2-0.6-0.5-0.8-0.9c-0.1-0.4-0.2-0.9-0.2-1.6s0.1-1.2,0.2-1.6c0.1-0.4,0.3-0.7,0.6-0.8
		C-17,76.4-16.4,76.3-15.6,76.3z"/>
	<path class="st3" d="M27.4,77.3c0.3-0.4,0.6-0.7,1.1-0.8c0.5-0.2,1.1-0.2,1.8-0.2c0.7,0,1.3,0.1,1.7,0.2c0.4,0.1,0.8,0.3,1,0.5
		s0.4,0.4,0.5,0.8c0.2,0.4,0.2,1.1,0.2,2v11.4c0,3.3-1,6.4-3.1,9.1c-1,1.3-2.3,2.3-3.9,3.1c-1.6,0.8-3.3,1.2-5.3,1.2
		s-3.7-0.4-5.3-1.2c-1.6-0.8-2.9-1.9-3.8-3.2c-2-2.7-3.1-5.7-3.1-9.1V79.7c0-0.6,0-1.1,0.1-1.3c0-0.3,0.2-0.6,0.4-1
		c0.2-0.4,0.5-0.6,1-0.8c0.5-0.2,1.1-0.2,1.9-0.2s1.4,0.1,1.9,0.2c0.5,0.2,0.8,0.4,1,0.8c0.3,0.6,0.5,1.4,0.5,2.4v11.3
		c0,1.5,0.4,3,1.1,4.4c0.4,0.7,0.9,1.3,1.7,1.7c0.8,0.4,1.7,0.6,2.7,0.6c1.8,0,3.2-0.7,4.1-2s1.4-2.9,1.4-4.7V79.4
		C27,78.4,27.1,77.8,27.4,77.3z"/>
	<path class="st3" d="M57,99.4c0.4,0.9,0.6,1.6,0.6,2c0,1-0.8,1.8-2.3,2.4c-0.8,0.4-1.5,0.5-1.9,0.5c-0.5,0-0.9-0.1-1.2-0.4
		c-0.3-0.2-0.5-0.5-0.7-0.7c-0.3-0.5-1.2-2.8-2.9-6.8l-1.2,0.1h-4.8v4.3c0,0.6,0,1-0.1,1.3c0,0.3-0.2,0.6-0.4,1
		c-0.4,0.7-1.3,1-2.9,1c-1.8,0-2.8-0.5-3.1-1.4c-0.2-0.4-0.2-1.1-0.2-2v-21c0-0.6,0-1,0.1-1.3c0-0.3,0.2-0.6,0.4-1
		c0.4-0.7,1.3-1,2.9-1h8.2c2.2,0,4.4,0.8,6.5,2.4c1,0.8,1.8,1.8,2.5,3.2c0.7,1.3,1,2.8,1,4.5c0,2.8-0.9,5.2-2.8,7
		C54.9,94.8,55.8,96.7,57,99.4z M42.4,89.7h4.8c0.7,0,1.5-0.3,2.2-0.8c0.7-0.6,1.1-1.4,1.1-2.5s-0.4-1.9-1.1-2.5S47.9,83,47.1,83
		h-4.8v6.7H42.4z"/>
	<path class="st3" d="M65.3,98.4h10.3c0.8,0,1.4,0.1,1.8,0.3c0.4,0.2,0.6,0.5,0.8,0.9c0.1,0.4,0.2,0.9,0.2,1.6s-0.1,1.2-0.2,1.6
		c-0.1,0.4-0.3,0.7-0.6,0.8c-0.5,0.3-1.1,0.4-2,0.4H62c-1.8,0-2.8-0.5-3.1-1.4c-0.2-0.4-0.2-1-0.2-1.9v-21c0-0.6,0-1,0.1-1.3
		c0-0.3,0.2-0.6,0.4-1c0.4-0.7,1.3-1,2.9-1c1.8,0,2.8,0.5,3.1,1.4c0.1,0.4,0.2,1.1,0.2,2v18.6H65.3z"/>
	<path class="st3" d="M86.5,97.4h11.6c0.6,0,1,0,1.3,0.1c0.3,0,0.6,0.2,1,0.4c0.7,0.4,1,1.3,1,2.9c0,1.8-0.5,2.8-1.4,3.1
		c-0.4,0.2-1.1,0.2-2,0.2H83c-1.8,0-2.8-0.5-3.1-1.4c-0.2-0.4-0.2-1-0.2-1.9v-21c0-1.3,0.2-2.2,0.7-2.6c0.5-0.5,1.4-0.7,2.7-0.7H98
		c0.6,0,1,0,1.3,0.1c0.3,0,0.6,0.2,1,0.4c0.7,0.4,1,1.3,1,2.9c0,1.8-0.5,2.8-1.4,3.1c-0.4,0.2-1.1,0.2-2,0.2H86.5V87H94
		c0.6,0,1,0,1.3,0.1c0.3,0,0.6,0.2,1,0.4c0.7,0.4,1,1.3,1,2.9c0,1.8-0.5,2.8-1.4,3.1c-0.4,0.2-1.1,0.2-2,0.2h-7.4V97.4z"/>
	<path class="st3" d="M116,76c3.7,0,7,1.3,9.7,4s4.1,6,4.1,10s-1.3,7.4-3.9,10.2c-2.6,2.8-5.8,4.2-9.7,4.2s-7.1-1.4-9.8-4.2
		c-2.7-2.8-4-6.1-4-9.9c0-2.1,0.4-4.1,1.1-5.9c0.8-1.8,1.8-3.4,3-4.6c1.3-1.2,2.7-2.2,4.3-2.9C112.6,76.3,114.2,76,116,76z
		 M109.1,90.2c0,2.2,0.7,4.1,2.2,5.5c1.4,1.4,3.1,2.1,4.9,2.1c1.8,0,3.4-0.7,4.8-2c1.4-1.4,2.2-3.2,2.2-5.5s-0.7-4.1-2.2-5.5
		c-1.4-1.4-3.1-2.1-4.9-2.1s-3.4,0.7-4.8,2.1C109.8,86.2,109.1,88,109.1,90.2z"/>
	<path class="st3" d="M149.2,77.5c0.2-0.4,0.6-0.7,1.1-0.9c0.5-0.2,1.1-0.2,1.8-0.2s1.3,0.1,1.7,0.2s0.8,0.3,1,0.5s0.4,0.4,0.5,0.8
		c0.2,0.4,0.2,1,0.2,1.9v21c0,0.6,0,1-0.1,1.3c0,0.3-0.2,0.6-0.4,1c-0.4,0.7-1.3,1-2.9,1c-1,0-1.7-0.1-2-0.2
		c-0.4-0.2-0.7-0.4-0.9-0.7c-5.7-7.6-9.4-12.5-11.2-14.8v12.4c0,0.6,0,1-0.1,1.3s-0.2,0.6-0.4,1c-0.4,0.7-1.3,1-2.9,1
		c-1.6,0-2.5-0.3-2.9-1c-0.2-0.4-0.3-0.7-0.4-1c0-0.3-0.1-0.7-0.1-1.3V79.6c0-1,0.1-1.7,0.4-2.1c0.2-0.4,0.6-0.7,1.1-0.9
		c0.5-0.2,1.1-0.2,1.9-0.2c0.8,0,1.4,0.1,1.8,0.2c0.4,0.1,0.7,0.3,0.9,0.5c0.1,0.1,0.4,0.4,0.9,1c5.3,7.2,8.9,12,10.7,14.3V79.6
		C148.8,78.6,149,77.9,149.2,77.5z"/>
</g>
</svg>
