<svg id="Layer_1" enable-background="new 0 0 64 64" viewBox="0 0 64 64" xmlns="http://www.w3.org/2000/svg"><path d="m46 51v6.3861694c-4.1536255 2.2998658-8.9255371 3.6138306-14 3.6138306s-9.8463745-1.3139648-14-3.6138306v-6.3861694c0-5.5136719 4.4863281-10 10-10h8c5.5136719 0 10 4.4863281 10 10zm15-19c0 9.1932373-4.3053589 17.3951416-11 22.7120972v-3.7120972c0-7.7197266-6.2802734-14-14-14h-8c-7.7197266 0-14 6.2802734-14 14v3.7120972c-6.6946411-5.3169556-11-13.5188599-11-22.7120972 0-15.9902344 13.0097656-29 29-29s29 13.0097656 29 29zm-18-8c0-6.0654297-4.9345703-11-11-11s-11 4.9345703-11 11 4.9345703 11 11 11 11-4.9345703 11-11zm-11-7c-3.859375 0-7 3.140625-7 7s3.140625 7 7 7 7-3.140625 7-7-3.140625-7-7-7z" fill="#ffaa20"/><path d="m32 3c-15.9907227 0-29 13.0092773-29 29s13.0092773 29 29 29 29-13.0092773 29-29-13.0092773-29-29-29zm0 54c-13.7851562 0-25-11.2148437-25-25s11.2148438-25 25-25 25 11.2148438 25 25-11.2148437 25-25 25z" fill="#ffc473"/></svg>